<?xml version="1.0" encoding="utf-8"?>
<!-- Generator: Adobe Illustrator 22.1.0, SVG Export Plug-In . SVG Version: 6.00 Build 0)  -->
<svg version="1.1" xmlns="http://www.w3.org/2000/svg" xmlns:xlink="http://www.w3.org/1999/xlink" x="0px" y="0px"
	 viewBox="0 0 304 304" style="enable-background:new 0 0 304 304;" xml:space="preserve">
<style type="text/css">
	.st0{fill:#F9E419;}
	.st1{fill:#FFFFFF;}
</style>
<g id="Warstwa_1">
	<g>
		<circle class="st0" cx="152" cy="152" r="150"/>
	</g>
</g>
<g id="Warstwa_2">
	<g>
		<g>
			<g>
				<path class="st1" d="M217.7,179c-4.5-9.4-20.6-22.4-36.1-35c-8.7-7-16.9-13.6-22.1-18.9c-1.3-1.3-3.3-1.7-5-1.1
					c-3.2,1.2-5.2,2.1-6.8,2.8c-2.4,1.1-3.2,1.4-6.4,1.8c-1.4,0.1-2.7,0.9-3.5,2.1c-6.7,10.1-13.7,9.2-18.4,7.7
					c-1.5-0.5-1.8-1.1-1.9-1.7c-1-4.2,4-13.9,10.5-20.5c15.5-15.5,23.5-19.4,40.4-11.9c19.2,8.6,38.4,15.3,38.6,15.3
					c2.5,0.9,5.2-0.4,6.1-2.9c0.9-2.5-0.4-5.2-2.9-6.1c-0.2-0.1-19-6.6-37.8-15.1c-21.9-9.8-33.9-3.3-51.1,13.8
					c-6.5,6.5-15.4,19.7-13.1,29.4c1,4.1,3.9,7.2,8.2,8.6c10.8,3.6,20.7,0.2,28-9.6c3-0.5,4.7-1.2,7.2-2.3c0.9-0.4,1.9-0.9,3.3-1.4
					c5.5,5.1,12.8,11.1,20.6,17.4c14,11.3,29.9,24.2,33.5,31.7c1.8,3.7-0.1,6.1-1.4,7.2c-1.9,1.6-4.5,2.1-5.9,1.2
					c-1.5-1.1-3.6-1.1-5.2-0.2c-1.6,1-2.5,2.8-2.3,4.6c0.3,3-2.5,4.8-3.7,5.4c-3.1,1.5-6.2,1.3-7.4,0.2c-1.3-1.2-3.3-1.6-5-1
					c-1.7,0.6-2.9,2.2-3.1,4c-0.3,3.1-2.6,6.1-5.6,7.3c-1.5,0.6-3.6,0.9-5.5-0.8c-1.2-1.1-2.8-1.5-4.4-1.1c-1.6,0.4-2.8,1.5-3.4,3
					c-0.2,0.5-0.6,1.6-5.1,1.6c-3.2,0-8.9-2.1-11.7-4c-3.4-2.2-24.4-17.9-42.5-33.1c-2.5-2.1-7-6.7-10.9-10.8
					c-3.5-3.6-6.6-6.9-8.2-8.3c-2-1.7-5-1.5-6.7,0.6c-1.7,2-1.5,5,0.6,6.7c1.5,1.3,4.3,4.3,7.5,7.6c4.3,4.4,8.7,9,11.6,11.5
					c17.8,14.9,39.1,30.9,43.4,33.7c3.5,2.3,11.1,5.6,16.9,5.6c4.7,0,8.3-1.1,10.8-3.2c3.4,1.3,7.2,1.3,10.9-0.1
					c4.3-1.7,7.9-5.1,9.9-9.2c3.8,0.8,8.1,0.2,12-1.7c3.8-1.9,6.6-4.9,8-8.3c3.8,0.2,7.7-1.1,10.9-3.9
					C219.3,192.9,220.8,185.6,217.7,179z"/>
			</g>
		</g>
		<g>
			<g>
				<path class="st1" d="M131.9,100.1H89.8c-2.6,0-4.8,2-4.9,4.6c0,2.6,2.1,4.8,4.7,4.8l42.1,0c2.6,0,4.8-2,4.9-4.6
					C136.6,102.2,134.5,100.1,131.9,100.1z"/>
			</g>
		</g>
		<g>
			<g>
				<path class="st1" d="M231.6,168.8c-1.5-2.2-4.4-2.8-6.6-1.3l-14,9.4c-2.2,1.5-2.8,4.4-1.3,6.6c0.9,1.4,2.4,2.1,4,2.1
					c0.9,0,1.8-0.3,2.7-0.8l14-9.4C232.5,174,233.1,171,231.6,168.8z"/>
			</g>
		</g>
		<g>
			<g>
				<path class="st1" d="M202,191.6c-3.4-2.7-18.7-18.3-28.2-28.2c-1.8-1.9-4.8-2-6.7-0.1c-1.9,1.8-2,4.8-0.1,6.7
					c2.5,2.6,24.1,25.1,29.1,29.1c0.9,0.7,1.9,1,2.9,1c1.4,0,2.8-0.6,3.8-1.8C204.4,196.3,204.1,193.2,202,191.6z"/>
			</g>
		</g>
		<g>
			<g>
				<path class="st1" d="M182.9,201.2c-5.7-4.6-20.1-19.8-23.3-23.4c-1.8-1.9-4.8-2.1-6.7-0.3c-1.9,1.8-2.1,4.8-0.3,6.7
					c0.2,0.2,17.3,18.7,24.4,24.4c0.9,0.7,1.9,1,3,1c1.4,0,2.8-0.6,3.7-1.8C185.3,205.8,185,202.8,182.9,201.2z"/>
			</g>
		</g>
		<g>
			<g>
				<path class="st1" d="M164,210.8c-6.8-5.7-20.7-20.6-23.5-23.5c-1.8-1.9-4.8-2-6.7-0.2c-1.9,1.8-2,4.8-0.2,6.7
					c3.9,4.2,17.2,18.3,24.3,24.3c0.9,0.8,2,1.1,3.1,1.1c1.4,0,2.7-0.6,3.7-1.7C166.2,215.5,166,212.5,164,210.8z"/>
			</g>
		</g>
		<g>
			<g>
				<path class="st1" d="M92.8,91.5c-8.2-7.8-40.9-10.3-50.7-10.8c-1.4-0.1-2.6,0.4-3.6,1.3c-1,0.9-1.5,2.2-1.5,3.5v85.9
					c0,2.6,2.1,4.8,4.8,4.8h28.6c2.1,0,3.9-1.3,4.5-3.3c0.7-2.1,17.1-52.6,19.3-77.4C94.4,93.9,93.8,92.5,92.8,91.5z M66.8,166.7
					H46.4v-76c15.3,1.2,31.9,3.8,37.9,6.8C81.8,118.4,70.3,155.5,66.8,166.7z"/>
			</g>
		</g>
		<g>
			<g>
				<path class="st1" d="M261.3,90.5c-37.5,0-58.3,9.6-59.1,10c-1.2,0.6-2.2,1.7-2.5,3c-0.4,1.3-0.2,2.7,0.5,3.9
					c5.9,9.5,24.4,62.2,27.9,75.1c0.6,2.1,2.5,3.5,4.6,3.5h28.6c2.6,0,4.8-2.1,4.8-4.8V95.3C266.1,92.6,264,90.5,261.3,90.5z
					 M256.3,176.1H236c-4.5-14.7-17.9-53.2-25.3-69.1c7.3-2.5,22.9-6.7,45.6-7.3V176.1z"/>
			</g>
		</g>
		<g>
		</g>
		<g>
		</g>
		<g>
		</g>
		<g>
		</g>
		<g>
		</g>
		<g>
		</g>
		<g>
		</g>
		<g>
		</g>
		<g>
		</g>
		<g>
		</g>
		<g>
		</g>
		<g>
		</g>
		<g>
		</g>
		<g>
		</g>
		<g>
		</g>
	</g>
</g>
</svg>
