<?xml version="1.0" encoding="utf-8"?>
<!-- Generator: Adobe Illustrator 22.1.0, SVG Export Plug-In . SVG Version: 6.00 Build 0)  -->
<svg version="1.1" xmlns="http://www.w3.org/2000/svg" xmlns:xlink="http://www.w3.org/1999/xlink" x="0px" y="0px"
	 viewBox="0 0 304 304" style="enable-background:new 0 0 304 304;" xml:space="preserve">
<style type="text/css">
	.st0{fill:#3200D1;}
	.st1{fill:#FFFFFF;}
</style>
<g id="Warstwa_1">
	<g>
		<circle class="st0" cx="152" cy="152" r="150"/>
	</g>
</g>
<g id="Warstwa_2">
	<g>
		<g>
			<g>
				<path class="st1" d="M218.3,195h-24.8c-5.1,0-10.2,1.3-14.6,3.9c-3.8,2.2-7.1,5.2-9.6,8.7c-1.7-0.3-3.4-0.4-5.1-0.4h-24.9
					c-1.7,0-3.4,0.1-5.1,0.4c-2.5-3.6-5.8-6.6-9.6-8.7c-4.5-2.6-9.5-3.9-14.6-3.9H84.9c-16.5,0-29.9,13.5-29.9,30.1v16.4
					c0,1.8,1.4,3.2,3.2,3.2h51v9c0,1.8,1.4,3.2,3.2,3.2h78.2c1.8,0,3.2-1.4,3.2-3.2v-9h51c1.8,0,3.2-1.4,3.2-3.2v-16.4
					C248,208.6,234.7,195.1,218.3,195z M109.2,234.3v0.7c0,0.3,0,0.6,0,0.9v1.3v1.5H61.1v-13.6c0-12.9,10.5-23.4,23.5-23.5h24.9
					c4,0,8,1,11.5,3c2.3,1.3,4.5,3,6.2,5.1C117.2,214.1,110.3,223.5,109.2,234.3z M187.2,237.3v13.6h-71.9V237c0-0.3,0-0.5,0-0.7
					c0-0.4,0-0.8,0-1.2v-0.6c0-0.2,0-0.4,0-0.7v-0.7V233v-0.2v-0.5l0.1-0.5l0.2-0.8l0.2-0.5c3.2-9.6,12.2-16.2,22.4-16.2l0.6-0.4
					h24.9c11.8,0,21.8,8.8,23.3,20.5c0,0.5,0,1,0.1,1.5C187.2,236.3,187.2,236.8,187.2,237.3z M241.4,238.7h-48.1v-2V236v-0.8v-1.1
					v-0.3v-0.4v-0.7v-0.1v-0.3v-0.2V232v-0.3v-0.3v-0.2V231v-0.2v-0.2v-0.5v-0.2v-0.3v-0.3l0.6-0.6v-0.1v-0.2v-0.2v-0.2v-0.3
					l-0.3-0.9c-2.9-7.7-8.7-13.8-16.2-17.1c1.3-2,2.9-3.7,4.8-5.2c3.5-2,7.4-3,11.4-3h24.6c12.8,0,23.2,10.5,23.3,23.4V238.7z"/>
			</g>
		</g>
		<g>
			<g>
				<circle class="st1" cx="151.6" cy="89.6" r="3.6"/>
			</g>
		</g>
		<g>
			<g>
				<path class="st1" d="M113.2,151.2c-4.2-4.3-10-6.6-16-6.6c-12.5,0-22.6,10.1-22.6,22.6c0,12.5,10.1,22.6,22.6,22.6
					s22.6-10.1,22.6-22.6C119.8,161.1,117.5,155.4,113.2,151.2z M108.7,178.5c-6.3,6.3-16.6,6.3-22.9,0c-6.3-6.3-6.3-16.6,0-22.9
					c6.3-6.3,16.6-6.3,22.9,0c3,3,4.7,7.1,4.7,11.4C113.4,171.4,111.7,175.5,108.7,178.5z"/>
			</g>
		</g>
		<g>
			<g>
				<circle class="st1" cx="175.1" cy="89.6" r="3.6"/>
			</g>
		</g>
		<g>
			<g>
				<path class="st1" d="M189.3,59.1c-10.8-8.3-24.1-12.8-37.8-12.6c-13.7-0.2-27,4.2-37.8,12.6c-9.9,7.9-16,18.9-16,31.1
					c0,6.2,1.6,12.3,4.6,17.7c2.8,5.1,6.7,9.6,11.3,13.3l-2.5,16.9c-0.3,1.7,0.9,3.4,2.7,3.6c0.7,0.1,1.5,0,2.1-0.4l17.3-10.1
					c2.7,0.8,5.5,1.4,8.4,1.9c3.4,0.5,6.7,0.8,10.1,0.8c13.7,0.2,27-4.2,37.8-12.6c9.9-7.9,16-18.9,16-31.1S199.2,67,189.3,59.1z
					 M185.3,116.4c-9.7,7.4-21.6,11.3-33.8,11.1c-3.1,0-6.1-0.2-9.1-0.7c-3-0.4-6-1.1-8.9-2.1c-0.9-0.3-1.8-0.2-2.6,0.3l-12.6,7.5
					l1.8-12.2c0.2-1.2-0.3-2.4-1.3-3.1c-4.5-3.3-8.3-7.5-11.1-12.4c-2.5-4.5-3.8-9.5-3.8-14.6c0-10.2,5.2-19.4,13.6-26.2
					c9.7-7.4,21.6-11.3,33.8-11.1c12.2-0.2,24.1,3.7,33.8,11.1c8.4,6.6,13.6,16,13.6,26.2S193.7,109.6,185.3,116.4z"/>
			</g>
		</g>
		<g>
			<g>
				<path class="st1" d="M205.7,144.5c-12.5,0-22.6,10.1-22.6,22.6c0,6,2.4,11.7,6.6,16c4.2,4.3,10,6.6,16,6.6
					c12.5,0,22.6-10.1,22.6-22.6S218.2,144.5,205.7,144.5z M217.1,178.5c-6.3,6.3-16.6,6.3-22.9,0c-3-3-4.7-7.1-4.7-11.4
					c0-4.3,1.7-8.4,4.7-11.4c6.3-6.3,16.6-6.3,22.9,0C223.5,162,223.5,172.2,217.1,178.5z"/>
			</g>
		</g>
		<g>
			<g>
				<circle class="st1" cx="128.2" cy="89.6" r="3.6"/>
			</g>
		</g>
		<g>
			<g>
				<path class="st1" d="M167.4,163.1c-4.2-4.2-10-6.6-15.9-6.6c-6,0-11.7,2.4-16,6.6c-8.8,8.8-8.8,23.1,0.1,31.9
					c8.8,8.8,23.1,8.8,31.9-0.1C176.3,186.2,176.3,171.9,167.4,163.1z M151.5,195.3c-8.9,0-16.2-7.2-16.2-16.2s7.2-16.2,16.2-16.2
					c4.3,0,8.4,1.7,11.4,4.7c3,3,4.7,7.1,4.7,11.4C167.7,188.1,160.4,195.3,151.5,195.3z"/>
			</g>
		</g>
		<g>
		</g>
		<g>
		</g>
		<g>
		</g>
		<g>
		</g>
		<g>
		</g>
		<g>
		</g>
		<g>
		</g>
		<g>
		</g>
		<g>
		</g>
		<g>
		</g>
		<g>
		</g>
		<g>
		</g>
		<g>
		</g>
		<g>
		</g>
		<g>
		</g>
	</g>
</g>
</svg>
