<?xml version="1.0" encoding="utf-8"?>
<!-- Generator: Adobe Illustrator 22.1.0, SVG Export Plug-In . SVG Version: 6.00 Build 0)  -->
<svg version="1.1" xmlns="http://www.w3.org/2000/svg" xmlns:xlink="http://www.w3.org/1999/xlink" x="0px" y="0px"
	 viewBox="0 0 304 304" style="enable-background:new 0 0 304 304;" xml:space="preserve">
<style type="text/css">
	.st0{fill:#FF212E;}
	.st1{fill:#FFFFFF;}
</style>
<g id="Warstwa_1">
	<g>
		<circle class="st0" cx="152" cy="152" r="150"/>
	</g>
</g>
<g id="Warstwa_2">
	<g>
		<g>
			<g>
				<path class="st1" d="M249.2,79.9l-25.6-25.6c-3.7-3.7-9.8-3.7-13.5,0l-48.3,48.3c-1.2,1.2-1.2,3.2,0,4.4c1.2,1.2,3.2,1.2,4.4,0
					l48.3-48.3c0.6-0.6,1.5-1,2.4-1s1.8,0.4,2.4,1l25.6,25.6c0.6,0.6,1,1.5,1,2.4c0,0.9-0.4,1.8-1,2.4l-6.3,6.3L222,78.9
					c-1.2-1.2-3.2-1.2-4.4,0c-1.2,1.2-1.2,3.2,0,4.4l16.5,16.5L227,107l-7.2-7.2c-1.2-1.2-3.2-1.2-4.4,0c-1.2,1.2-1.2,3.2,0,4.4
					l7.2,7.2l-7.2,7.2l-7.2-7.2c-1.2-1.2-3.2-1.2-4.4,0c-1.2,1.2-1.2,3.2,0,4.4l7.2,7.2l-7.2,7.2l-16.5-16.5c-1.2-1.2-3.2-1.2-4.4,0
					c-1.2,1.2-1.2,3.2,0,4.4l16.5,16.5l-7.2,7.2l-7.2-7.2c-1.2-1.2-3.2-1.2-4.4,0c-1.2,1.2-1.2,3.2,0,4.4l7.2,7.2l-6.1,6.1
					l-30.4-30.4l5.7-5.7c1.2-1.2,1.2-3.2,0-4.4c-1.2-1.2-3.2-1.2-4.4,0l-5.7,5.7L89.9,60.2c-4-4-9.2-6.2-14.9-6.2
					c-5.6,0-10.9,2.2-14.9,6.2c-4,4-6.2,9.2-6.2,14.9c0,5.6,2.2,10.9,6.2,14.9l57.1,57.1l-63,63c-3.7,3.7-3.7,9.8,0,13.5l25.6,25.6
					c1.8,1.8,4.2,2.8,6.8,2.8s5-1,6.8-2.8l63-63l4.5,4.5c1.2,1.2,3.2,1.2,4.4,0c1.2-1.2,1.2-3.2,0-4.4l-6.2-6.2
					c-0.1-0.2-0.3-0.4-0.4-0.5s-0.3-0.3-0.5-0.4l-67.1-67.1l8.3-8.3l5.1,5.1c0.6,0.6,1.4,0.9,2.2,0.9s1.6-0.3,2.2-0.9
					c1.2-1.2,1.2-3.2,0-4.4l-5.1-5.1l8.3-8.3l32.7,32.7c0,0,0,0,0,0c0,0,0,0,0,0l34.5,34.5c0.1,0.1,0.2,0.2,0.3,0.3
					c0.1,0.1,0.2,0.2,0.3,0.3l45.9,45.9l-8.3,8.3l-46.3-46.3c0,0-0.1-0.1-0.1-0.1l-18.5-18.5c0,0-0.1-0.1-0.1-0.1l-32.6-32.6
					c-1.2-1.2-3.2-1.2-4.4,0c-1.2,1.2-1.2,3.2,0,4.4l97.6,97.6l-8.3,8.3l-29.4-29.4c-1.2-1.2-3.2-1.2-4.4,0c-1.2,1.2-1.2,3.2,0,4.4
					l31.6,31.6c0.3,0.3,0.7,0.5,1.1,0.7l37.4,14.5c0.6,0.2,1.2,0.3,1.8,0.3c1.3,0,2.6-0.5,3.6-1.5c1.4-1.4,1.8-3.5,1.1-5.4
					l-14.5-37.4c-0.2-0.4-0.4-0.8-0.7-1.1l-46.2-46.2l63-63C252.9,89.7,252.9,83.7,249.2,79.9z M152.1,181.8l-6.1,6.1l-7.2-7.2
					c-1.2-1.2-3.2-1.2-4.4,0c-1.2,1.2-1.2,3.2,0,4.4l7.2,7.2l-7.2,7.2L118,183c-1.2-1.2-3.2-1.2-4.4,0c-1.2,1.2-1.2,3.2,0,4.4
					l16.5,16.5l-7.2,7.2l-7.2-7.2c-1.2-1.2-3.2-1.2-4.4,0c-1.2,1.2-1.2,3.2,0,4.4l7.2,7.2l-7.2,7.2l-7.2-7.2c-1.2-1.2-3.2-1.2-4.4,0
					c-1.2,1.2-1.2,3.2,0,4.4l7.2,7.2l-7.2,7.2l-16.5-16.5c-1.2-1.2-3.2-1.2-4.4,0c-1.2,1.2-1.2,3.2,0,4.4l16.5,16.5l-6.3,6.3
					c-0.6,0.6-1.5,1-2.4,1c-0.9,0-1.8-0.4-2.4-1l-25.6-25.6c-1.3-1.3-1.3-3.5,0-4.8l63-63L152.1,181.8z M64.6,85.6
					c-5.8-5.8-5.8-15.2,0-21c5.8-5.8,15.2-5.8,21,0l9.8,9.8l-21,21L64.6,85.6z M97.2,97.2C97.2,97.2,97.2,97.2,97.2,97.2
					C97.2,97.2,97.2,97.2,97.2,97.2l-10.5,10.5l-8-8l21-21l8,8L97.2,97.2z M240.9,240.9l-30.5-11.8l18.6-18.6L240.9,240.9z"/>
			</g>
		</g>
		<g>
		</g>
		<g>
		</g>
		<g>
		</g>
		<g>
		</g>
		<g>
		</g>
		<g>
		</g>
		<g>
		</g>
		<g>
		</g>
		<g>
		</g>
		<g>
		</g>
		<g>
		</g>
		<g>
		</g>
		<g>
		</g>
		<g>
		</g>
		<g>
		</g>
	</g>
</g>
</svg>
