<?xml version="1.0" encoding="iso-8859-1"?>
<!-- Generator: Adobe Illustrator 19.0.0, SVG Export Plug-In . SVG Version: 6.00 Build 0)  -->
<svg version="1.1" id="Capa_1" xmlns="http://www.w3.org/2000/svg" xmlns:xlink="http://www.w3.org/1999/xlink" x="0px" y="0px"
	 viewBox="0 0 485.544 485.544" style="enable-background:new 0 0 485.544 485.544;" xml:space="preserve">
<g>
	<g>
		<path d="M127.94,0h-32c-13.255,0-24,10.745-24,24v32c0,17.673,14.327,32,32,32s32-14.327,32-32V8C135.94,3.582,132.358,0,127.94,0
			z M119.94,32h-24v16h24v8c0,8.837-7.163,16-16,16s-16-7.163-16-16V24c0-4.418,3.582-8,8-8h24V32z"/>
	</g>
</g>
<g>
	<g>
		<path d="M394.284,266.376l-26.344,26.312l-34.344-34.344c-1.603-1.384-3.614-2.207-5.728-2.344
			c-2.149,0.021-4.199,0.907-5.688,2.456l-26.24,27.248V56h8V40h-8V0h-16v40h-8c-1.779,0.001-3.508,0.595-4.912,1.688L197.196,96
			H87.94c-3.068,0.007-6.105,0.607-8.944,1.768C75.484,82.704,62.072,72.034,46.604,72h-5.328
			C22.927,71.954,8.014,86.791,7.968,105.14c-0.021,8.495,3.212,16.675,9.035,22.86c-5.71,4.513-9.048,11.386-9.064,18.664V208
			c0.026,22.08,17.92,39.974,40,40h16v94.784L24.3,469.6c-1.325,4.215,1.017,8.706,5.232,10.032
			c0.779,0.245,1.592,0.369,2.409,0.368h48v-16H67.756l43.616-109.032c0.235-0.589,0.399-1.204,0.488-1.832l9.408-65.872
			L167.236,316l-15.2,98.792c-0.667,4.368,2.333,8.449,6.7,9.116c0.398,0.061,0.801,0.091,1.204,0.092h2.824l-48.584,50.456
			l11.52,11.088L184.972,424h22.968v-16h-7.56l79.56-82.616V352h-8v16h8v8h16v-8h8v-16h-8v-43.2l32.112-33.344l34.232,34.232
			c3.124,3.123,8.188,3.123,11.312,0l32-32L394.284,266.376z M167.94,112h32c1.779-0.001,3.508-0.595,4.912-1.688L258.996,68.2
			l-47.056,52.296l-44,6.28V112z M40.531,88c0.248-0.005,0.497-0.005,0.745,0h5.328c9.572-0.206,17.499,7.387,17.704,16.96
			s-7.387,17.499-16.96,17.704c-0.248,0.005-0.497,0.005-0.745,0h-5.328c-9.572,0.206-17.499-7.387-17.704-16.96
			C23.366,96.132,30.959,88.206,40.531,88z M47.94,232c-13.255,0-24-10.745-24-24v-61.336c0-4.418,3.582-8,8-8h24
			c4.418,0,8,3.582,8,8V232H47.94z M96.156,349.92L50.524,464H42.82l36.8-117.6c0.228-0.779,0.336-1.588,0.32-2.4v-96h30.776
			L96.156,349.92z M120.58,232H79.94V120c0-4.418,3.582-8,8-8h64v16.936l-56.992,7.128l1.984,15.872l30.64-3.824L120.58,232z
			 M177.796,408h-8.528l14.576-94.784c0.487-3.159-0.954-6.305-3.664-8l-56.44-35.272l3.032-21.2L206.7,299.6L177.796,408z
			 M279.94,302.312L200.548,384.8l23.12-86.696c0.895-3.368-0.494-6.927-3.432-8.8l-83.92-53.4l7.48-89.768l17.136-2.144l0.136-0.04
			l56-8c1.851-0.269,3.549-1.177,4.8-2.568l58.072-64.536V302.312z"/>
	</g>
</g>
<g>
	<g>
		<rect x="442.974" y="204.011" transform="matrix(0.7071 -0.7071 0.7071 0.7071 -15.1995 387.3279)" width="33.944" height="16"/>
	</g>
</g>
<g>
	<g>
		<rect x="412.649" y="239.949" transform="matrix(0.7071 -0.7071 0.7071 0.7071 -51.1511 372.4089)" width="22.624" height="16"/>
	</g>
</g>
<g>
	<g>
		<path d="M438.284,118.344l-22.344,22.344L379.252,104l16.688-16.688l14.344,14.344c3.124,3.123,8.188,3.123,11.312,0l56-56
			l-11.312-11.312L415.94,84.688l-14.344-14.344c-3.124-3.123-8.188-3.123-11.312,0l-84,84l11.312,11.312l50.344-50.344
			l42.344,42.344c3.124,3.123,8.188,3.123,11.312,0l22.344-22.344l18.344,18.344l11.312-11.312l-24-24
			C446.472,115.221,441.408,115.221,438.284,118.344z"/>
	</g>
</g>
<g>
</g>
<g>
</g>
<g>
</g>
<g>
</g>
<g>
</g>
<g>
</g>
<g>
</g>
<g>
</g>
<g>
</g>
<g>
</g>
<g>
</g>
<g>
</g>
<g>
</g>
<g>
</g>
<g>
</g>
</svg>
