<?xml version="1.0" encoding="utf-8"?>
<!-- Generator: Adobe Illustrator 22.1.0, SVG Export Plug-In . SVG Version: 6.00 Build 0)  -->
<svg version="1.1" xmlns="http://www.w3.org/2000/svg" xmlns:xlink="http://www.w3.org/1999/xlink" x="0px" y="0px"
	 viewBox="0 0 304 304" style="enable-background:new 0 0 304 304;" xml:space="preserve">
<style type="text/css">
	.st0{fill:#45C136;}
	.st1{fill:#FFFFFF;}
</style>
<g id="Warstwa_1">
	<g>
		<circle class="st0" cx="152" cy="152" r="150"/>
	</g>
</g>
<g id="Warstwa_2">
	<g>
		<g>
			<g>
				<path class="st1" d="M236,52H68c-8.8,0-16,7.1-16,16v114.7c0,1.8,1.5,3.3,3.3,3.3h37.6c0.2,0,0.3-0.1,0.5-0.2
					c2.9-2.7,1-6.1-1.7-6.1H67.8c-5.3,0-9.6-4.3-9.6-9.6V68.2c0-5.3,4.3-9.6,9.6-9.6h167.9c5.3,0,9.6,4.3,9.6,9.6v108.2
					c0,1.8-1.5,3.3-3.3,3.3h-29c-0.3,0-0.6,0.1-0.8,0.4c-2.6,2.7-0.7,5.9,1.9,5.9H236c8.8,0,16-7.1,16-16V68
					C251.9,59.1,244.8,52,236,52z"/>
			</g>
		</g>
		<g>
			<g>
				<path class="st1" d="M223,64.9H80.6c-1.8,0-3.2,1.4-3.2,3.2v101.8c0,1.7,1.4,3.1,3.1,3.1h11.3c1.7,0,3.1-1.3,3.2-2.9
					c0.1-1.8-1.3-3.3-3.1-3.3h-8.3V71.1h136.3v95.7h-6.7c-1.4,0-2.7,0.9-3.1,2.2c-0.7,2.3,1,4.4,3.1,4.4h9.7c1.8,0,3.2-1.4,3.2-3.2
					V68.1C226.2,66.3,224.7,64.9,223,64.9z"/>
			</g>
		</g>
		<g>
			<g>
				<circle class="st1" cx="67.8" cy="119" r="3.2"/>
			</g>
		</g>
		<g>
			<g>
				<path class="st1" d="M190.1,140.3c-3.2,0-6.2,1.1-8.6,3c-2.1-4.9-7-8.3-12.6-8.3c-3.2,0-6.2,1.1-8.6,3c-2.1-4.9-7-8.3-12.6-8.3
					c-2.7,0-5.3,0.8-7.4,2.2v-25.4c0-6.9-5-12.9-11.8-13.9c-8.6-1.2-15.9,5.4-15.9,13.7v50.4c-6,1.4-10.5,6.9-10.5,13.3v16.2
					c0,16.4,8,31.7,21.1,41.1v21.4c0,1.7,1.3,3.1,2.9,3.2c1.8,0.1,3.3-1.3,3.3-3.1v-17.6c0.6,0.3,1.2,0.6,1.8,0.9
					c0.4,0.2,0.9,0.3,1.3,0.3c1.2,0,2.3-0.7,2.9-1.8c0.7-1.6,0.1-3.5-1.5-4.2c-15.5-7.3-25.6-23-25.6-40.2v-16.1
					c0-3,1.8-5.6,4.3-6.8v19.4c0,1.7,1.3,3.1,2.9,3.2c1.8,0.1,3.3-1.3,3.3-3.1l0-76.4c0-4,3.1-7.5,7.1-7.6c4.2-0.2,7.7,3.2,7.7,7.4
					v53.3c0,1.7,1.3,3.1,2.9,3.2c1.8,0.1,3.3-1.3,3.3-3.1v-16.1c0-3.3,2.1-6.3,5.2-7.2c5.2-1.6,10.1,2.2,10.1,7.2v15.8
					c0,1.7,1.3,3.1,2.9,3.2c1.8,0.1,3.3-1.3,3.3-3.1V149c0-4,3.1-7.5,7.1-7.6c4.2-0.2,7.7,3.2,7.7,7.4v10.6c0,1.4,0.9,2.7,2.2,3.1
					c2.3,0.7,4.4-1,4.4-3.1v-5.1c0-4,3.1-7.5,7.1-7.6c4.2-0.2,7.7,3.2,7.7,7.4v31.7c0,17.4-10.2,33.5-26,40.9
					c-1.4,0.7-2.2,2.2-1.8,3.7c0.4,1.5,1.7,2.5,3.1,2.5c0.5,0,0.9-0.1,1.4-0.3c0.6-0.3,1.2-0.6,1.9-0.9v17.1c0,1.4,0.9,2.7,2.2,3.1
					c2.3,0.7,4.4-1,4.4-3.1v-21.4c13-9.4,21.1-24.7,21.1-41.1v-32.1C203.9,146.5,197.7,140.3,190.1,140.3z"/>
			</g>
		</g>
		<g>
		</g>
		<g>
		</g>
		<g>
		</g>
		<g>
		</g>
		<g>
		</g>
		<g>
		</g>
		<g>
		</g>
		<g>
		</g>
		<g>
		</g>
		<g>
		</g>
		<g>
		</g>
		<g>
		</g>
		<g>
		</g>
		<g>
		</g>
		<g>
		</g>
	</g>
</g>
</svg>
