<svg id="Warstwa_3" data-name="Warstwa 3" xmlns="http://www.w3.org/2000/svg" viewBox="0 0 968.03 968.03"><defs><style>.cls-1{fill:none;stroke:#000;stroke-miterlimit:10;stroke-width:42.51px;}.cls-2{fill:#e09b00;}</style></defs><title>logo jw</title><path class="cls-1" d="M355.81,55.83q15.81-4.66,32.16-8.27C637.52-7.33,884.32,150.48,939.21,400S836.29,896.39,586.74,951.28,90.38,848.36,35.49,598.8C-5,414.6,70.35,231.9,213,126.77" transform="translate(-3.34 -15.4)"/><circle class="cls-2" cx="277.66" cy="69.6" r="64"/><path d="M262,211l78-19,29.07,407L378,724s15,141-43,190-73-36-73-36,46-12,40-131Z" transform="translate(-3.34 -15.4)"/><path d="M821,205S636,619,645,632L612,226H544S366,596,369,599s7.73,107.26,7.73,107.26S544,372,560,316c0,0,10,217,35,395h71L876,258Z" transform="translate(-3.34 -15.4)"/><polyline points="377.3 683.04 370.66 695.6 361.66 587.6 370.18 571.61"/></svg>