<?xml version="1.0" encoding="utf-8"?>
<!-- Generator: Adobe Illustrator 22.1.0, SVG Export Plug-In . SVG Version: 6.00 Build 0)  -->
<svg version="1.1" id="Warstwa_3" xmlns="http://www.w3.org/2000/svg" xmlns:xlink="http://www.w3.org/1999/xlink" x="0px" y="0px"
	 viewBox="0 0 968 968" style="enable-background:new 0 0 968 968;" xml:space="preserve">
<style type="text/css">
	.st0{fill:none;stroke:#FFFFFF;stroke-width:42.51;stroke-miterlimit:10;}
	.st1{fill:#FFA500;}
	.st2{fill:#FFFFFF;}
</style>
<title>logo jw white</title>
<path class="st0" d="M352.5,40.4c10.5-3.1,21.3-5.9,32.2-8.3C634.2-22.7,881,135.1,935.9,384.6S832.9,881,583.4,935.9
	S87,833,32.2,583.4C-8.3,399.2,67,216.5,209.7,111.4"/>
<circle class="st1" cx="277.7" cy="69.6" r="64"/>
<path class="st2" d="M258.7,195.6l78-19l29.1,407l8.9,125c0,0,15,141-43,190s-73-36-73-36s46-12,40-131L258.7,195.6z"/>
<path class="st2" d="M817.7,189.6c0,0-185,414-176,427l-33-406h-68c0,0-178,370-175,373s7.7,107.3,7.7,107.3
	s167.3-334.3,183.3-390.3c0,0,10,217,35,395h71l210-453L817.7,189.6z"/>
<polyline class="st2" points="377.3,683 370.7,695.6 361.7,587.6 370.2,571.6 "/>
</svg>
