<?xml version="1.0" encoding="iso-8859-1"?>
<!-- Generator: Adobe Illustrator 19.0.0, SVG Export Plug-In . SVG Version: 6.00 Build 0)  -->
<svg version="1.1" id="Capa_1" xmlns="http://www.w3.org/2000/svg" xmlns:xlink="http://www.w3.org/1999/xlink" x="0px" y="0px"
	 viewBox="0 0 512 512" style="enable-background:new 0 0 512 512;" xml:space="preserve">
<g>
	<g>
		<path d="M431.053,362.8c-10.479-6.289-21.163-12.663-34.33-17.63l-59.836-59.836l5.777-4.855
			c10.359,7.979,22.946,12.365,36.241,12.382c0.026,0,0.06,0,0.094,0c15.923,0,30.899-6.187,42.172-17.434l12.083-12.049
			c0,0,0,0,0.009,0c0.008,0,0,0,0-0.009l22.298-22.229c23.322-23.262,23.373-61.158,0.12-84.471l-12.049-12.083
			c-11.264-11.298-26.257-17.536-42.206-17.562c-0.034,0-0.06,0-0.094,0c-15.923,0-30.899,6.187-42.172,17.434l-34.381,34.287
			c-16.819,16.768-21.47,41.131-14.071,62.174l-10.931,7.287l-91.75-91.733l55.962-62.182c11.682-12.979,11.162-32.836-1.195-45.184
			c-6.374-6.366-15.061-9.847-23.825-9.609c-9.003,0.171-17.331,3.9-23.45,10.487l-71.39,76.885
			c-15.684,16.896-15.206,42.897,1.092,59.204l64.572,64.572L94.694,365.753c-1.655-0.981-3.319-1.963-4.975-2.953
			C67.746,349.616,45.022,335.98,0,335.98v17.067c40.303,0,60.041,11.844,80.93,24.38c21.973,13.184,44.689,26.82,89.719,26.82
			c45.03,0,67.755-13.636,89.728-26.82c20.898-12.535,40.644-24.38,80.947-24.38s60.049,11.844,80.947,24.38
			c21.973,13.184,44.698,26.82,89.728,26.82V387.18C471.697,387.18,451.951,375.336,431.053,362.8z M421.197,251.287
			c-1.613,1.604-3.755,2.492-6.033,2.492h-0.009c-2.278,0-4.42-0.896-6.033-2.509l-12.049-12.092
			c-3.319-3.337-3.311-8.747,0.017-12.075c1.613-1.604,3.746-2.492,6.025-2.492c0.009,0,0.009,0,0.017,0
			c2.278,0,4.42,0.896,6.033,2.509l12.049,12.092c1.604,1.613,2.492,3.755,2.492,6.042
			C423.697,247.541,422.81,249.683,421.197,251.287z M401.314,144.091c0.017,0,0.043,0,0.068,0
			c11.392,0.017,22.101,4.471,30.148,12.544l12.049,12.083c11.563,11.597,14.865,28.194,10.3,42.846l-65.178-65.374
			C392.755,144.936,396.954,144.091,401.314,144.091z M371.191,156.541c0.64-0.631,1.391-1.092,2.057-1.681l71.936,72.149
			c-0.589,0.666-1.041,1.417-1.681,2.057l-5.274,5.257c-1.237-2.603-2.833-5.043-4.932-7.134l-12.049-12.092
			c-4.821-4.838-11.247-7.518-18.091-7.526c-0.009,0-0.026,0-0.043,0c-1.707,0-3.396,0.171-5.035,0.495
			c0.333-1.655,0.512-3.345,0.512-5.069c0.008-6.835-2.645-13.269-7.475-18.116l-12.049-12.083
			c-4.506-4.523-10.428-7.057-16.759-7.39L371.191,156.541z M354.918,184.821c1.613-1.604,3.746-2.492,6.025-2.492
			c0.009,0,0.009,0,0.017,0c2.278,0,4.42,0.896,6.033,2.509l12.049,12.083c1.604,1.613,2.492,3.755,2.492,6.042
			c0,2.278-0.896,4.42-2.509,6.033c-1.613,1.604-3.746,2.492-6.025,2.492h-0.009c-2.278,0-4.42-0.896-6.033-2.509l-12.049-12.083
			c-1.604-1.613-2.492-3.755-2.492-6.042S353.306,186.434,354.918,184.821z M335.497,192.424c0.375,6.229,2.876,12.058,7.313,16.512
			l12.049,12.083c4.821,4.838,11.247,7.518,18.091,7.526c0.017,0,0.026,0,0.043,0c1.724,0,3.422-0.171,5.069-0.503
			c-1.647,8.124,0.648,16.896,6.929,23.194l12.049,12.092c1.911,1.92,4.13,3.396,6.477,4.599c-7.142,5.06-15.599,7.868-24.533,7.868
			c-0.017,0-0.043,0-0.068,0c-11.392-0.017-22.101-4.471-30.157-12.544l-12.049-12.083
			C320.606,235.005,320.307,209.132,335.497,192.424z M318.66,256.108c1.801,2.475,3.746,4.872,5.973,7.108l5.487,5.504l-5.35,4.497
			l-12.706-12.706L318.66,256.108z M341.325,335.98c-45.03,0-67.755,13.636-89.728,26.82c-20.898,12.535-40.644,24.38-80.947,24.38
			c-27.332,0-45.141-5.495-60.331-12.919l123.614-123.614l-76.638-76.638c-9.779-9.779-10.069-25.387-0.657-35.524l71.39-76.885
			c2.944-3.166,6.938-4.958,11.255-5.035c4.292-0.247,8.38,1.562,11.443,4.617c5.931,5.931,6.187,15.462,0.572,21.7l-66.799,74.214
			l100.77,100.762l38.494,38.494l41.028,41.028C357.683,336.484,349.918,335.98,341.325,335.98z"/>
	</g>
</g>
<g>
	<g>
		<path d="M431.053,431.067c-21.973-13.184-44.698-26.82-89.728-26.82s-67.755,13.636-89.728,26.82
			c-20.898,12.535-40.644,24.38-80.947,24.38c-40.303,0-60.041-11.844-80.93-24.38C67.746,417.883,45.022,404.247,0,404.247v17.067
			c40.303,0,60.041,11.844,80.93,24.38c21.973,13.184,44.689,26.82,89.719,26.82c45.03,0,67.755-13.636,89.728-26.82
			c20.898-12.535,40.644-24.38,80.947-24.38s60.049,11.844,80.947,24.38c21.973,13.184,44.698,26.82,89.728,26.82v-17.067
			C471.697,455.447,451.951,443.603,431.053,431.067z"/>
	</g>
</g>
<g>
</g>
<g>
</g>
<g>
</g>
<g>
</g>
<g>
</g>
<g>
</g>
<g>
</g>
<g>
</g>
<g>
</g>
<g>
</g>
<g>
</g>
<g>
</g>
<g>
</g>
<g>
</g>
<g>
</g>
</svg>
